<svg width="90" height="22" viewBox="0 0 90 22" fill="none" xmlns="http://www.w3.org/2000/svg">
<path d="M36.1875 13.3828H37.6875C37.6094 14.1016 37.4036 14.7448 37.0703 15.3125C36.737 15.8802 36.2656 16.3307 35.6562 16.6641C35.0469 16.9922 34.2865 17.1562 33.375 17.1562C32.7083 17.1562 32.1016 17.0312 31.5547 16.7812C31.013 16.5312 30.5469 16.1771 30.1562 15.7188C29.7656 15.2552 29.4635 14.7005 29.25 14.0547C29.0417 13.4036 28.9375 12.6797 28.9375 11.8828V10.75C28.9375 9.95312 29.0417 9.23177 29.25 8.58594C29.4635 7.9349 29.7682 7.3776 30.1641 6.91406C30.5651 6.45052 31.0469 6.09375 31.6094 5.84375C32.1719 5.59375 32.8047 5.46875 33.5078 5.46875C34.3672 5.46875 35.0938 5.63021 35.6875 5.95312C36.2812 6.27604 36.7422 6.72396 37.0703 7.29688C37.4036 7.86458 37.6094 8.52344 37.6875 9.27344H36.1875C36.1146 8.74219 35.9792 8.28646 35.7812 7.90625C35.5833 7.52083 35.3021 7.22396 34.9375 7.01562C34.5729 6.80729 34.0964 6.70312 33.5078 6.70312C33.0026 6.70312 32.5573 6.79948 32.1719 6.99219C31.7917 7.1849 31.4714 7.45833 31.2109 7.8125C30.9557 8.16667 30.763 8.59115 30.6328 9.08594C30.5026 9.58073 30.4375 10.1302 30.4375 10.7344V11.8828C30.4375 12.4401 30.4948 12.9635 30.6094 13.4531C30.7292 13.9427 30.9089 14.3724 31.1484 14.7422C31.388 15.112 31.6927 15.4036 32.0625 15.6172C32.4323 15.8255 32.8698 15.9297 33.375 15.9297C34.0156 15.9297 34.526 15.8281 34.9062 15.625C35.2865 15.4219 35.5729 15.1302 35.7656 14.75C35.9635 14.3698 36.1042 13.9141 36.1875 13.3828ZM38.8206 12.8672V12.6875C38.8206 12.0781 38.9092 11.513 39.0863 10.9922C39.2633 10.4661 39.5185 10.0104 39.8519 9.625C40.1852 9.23438 40.5889 8.93229 41.0628 8.71875C41.5368 8.5 42.068 8.39062 42.6566 8.39062C43.2503 8.39062 43.7842 8.5 44.2581 8.71875C44.7373 8.93229 45.1435 9.23438 45.4769 9.625C45.8154 10.0104 46.0732 10.4661 46.2503 10.9922C46.4274 11.513 46.5159 12.0781 46.5159 12.6875V12.8672C46.5159 13.4766 46.4274 14.0417 46.2503 14.5625C46.0732 15.0833 45.8154 15.5391 45.4769 15.9297C45.1435 16.3151 44.7399 16.6172 44.2659 16.8359C43.7972 17.0495 43.2659 17.1562 42.6722 17.1562C42.0784 17.1562 41.5446 17.0495 41.0706 16.8359C40.5967 16.6172 40.1904 16.3151 39.8519 15.9297C39.5185 15.5391 39.2633 15.0833 39.0863 14.5625C38.9092 14.0417 38.8206 13.4766 38.8206 12.8672ZM40.2659 12.6875V12.8672C40.2659 13.2891 40.3154 13.6875 40.4144 14.0625C40.5133 14.4323 40.6618 14.7604 40.8597 15.0469C41.0628 15.3333 41.3154 15.5599 41.6175 15.7266C41.9196 15.888 42.2711 15.9688 42.6722 15.9688C43.068 15.9688 43.4144 15.888 43.7113 15.7266C44.0133 15.5599 44.2633 15.3333 44.4613 15.0469C44.6592 14.7604 44.8076 14.4323 44.9066 14.0625C45.0107 13.6875 45.0628 13.2891 45.0628 12.8672V12.6875C45.0628 12.2708 45.0107 11.8776 44.9066 11.5078C44.8076 11.1328 44.6566 10.8021 44.4534 10.5156C44.2555 10.224 44.0055 9.99479 43.7034 9.82812C43.4066 9.66146 43.0576 9.57812 42.6566 9.57812C42.2607 9.57812 41.9118 9.66146 41.6097 9.82812C41.3128 9.99479 41.0628 10.224 40.8597 10.5156C40.6618 10.8021 40.5133 11.1328 40.4144 11.5078C40.3154 11.8776 40.2659 12.2708 40.2659 12.6875ZM49.4538 10.3516V17H48.0084V8.54688H49.3756L49.4538 10.3516ZM49.11 12.4531L48.5084 12.4297C48.5136 11.8516 48.5996 11.3177 48.7663 10.8281C48.9329 10.3333 49.1673 9.90365 49.4694 9.53906C49.7715 9.17448 50.1308 8.89323 50.5475 8.69531C50.9694 8.49219 51.4355 8.39062 51.9459 8.39062C52.3626 8.39062 52.7376 8.44792 53.0709 8.5625C53.4043 8.67188 53.6881 8.84896 53.9225 9.09375C54.1621 9.33854 54.3444 9.65625 54.4694 10.0469C54.5944 10.4323 54.6569 10.9036 54.6569 11.4609V17H53.2038V11.4453C53.2038 11.0026 53.1386 10.6484 53.0084 10.3828C52.8782 10.112 52.6881 9.91667 52.4381 9.79688C52.1881 9.67188 51.8808 9.60938 51.5163 9.60938C51.1569 9.60938 50.8288 9.6849 50.5319 9.83594C50.2402 9.98698 49.9876 10.1953 49.7741 10.4609C49.5657 10.7266 49.4017 11.0312 49.2819 11.375C49.1673 11.7135 49.11 12.0729 49.11 12.4531ZM60.0713 8.54688V9.65625H55.5009V8.54688H60.0713ZM57.0478 6.49219H58.4931V14.9062C58.4931 15.1927 58.5374 15.4089 58.6259 15.5547C58.7145 15.7005 58.8291 15.7969 58.9697 15.8438C59.1103 15.8906 59.2614 15.9141 59.4228 15.9141C59.5426 15.9141 59.6676 15.9036 59.7978 15.8828C59.9332 15.8568 60.0348 15.8359 60.1025 15.8203L60.1103 17C59.9957 17.0365 59.8447 17.0703 59.6572 17.1016C59.4749 17.138 59.2535 17.1562 58.9931 17.1562C58.639 17.1562 58.3134 17.0859 58.0166 16.9453C57.7197 16.8047 57.4827 16.5703 57.3056 16.2422C57.1338 15.9089 57.0478 15.4609 57.0478 14.8984V6.49219ZM66.4309 15.5547V11.2031C66.4309 10.8698 66.3632 10.5807 66.2278 10.3359C66.0976 10.0859 65.8997 9.89323 65.6341 9.75781C65.3684 9.6224 65.0403 9.55469 64.6497 9.55469C64.2851 9.55469 63.9648 9.61719 63.6888 9.74219C63.4179 9.86719 63.2044 10.0312 63.0481 10.2344C62.8971 10.4375 62.8216 10.6562 62.8216 10.8906H61.3763C61.3763 10.5885 61.4544 10.2891 61.6106 9.99219C61.7669 9.69531 61.9908 9.42708 62.2825 9.1875C62.5794 8.94271 62.9335 8.75 63.345 8.60938C63.7617 8.46354 64.2252 8.39062 64.7356 8.39062C65.3502 8.39062 65.8919 8.49479 66.3606 8.70312C66.8346 8.91146 67.2044 9.22656 67.47 9.64844C67.7408 10.0651 67.8763 10.5885 67.8763 11.2188V15.1562C67.8763 15.4375 67.8997 15.737 67.9466 16.0547C67.9986 16.3724 68.0742 16.6458 68.1731 16.875V17H66.6653C66.5924 16.8333 66.5351 16.612 66.4934 16.3359C66.4518 16.0547 66.4309 15.7943 66.4309 15.5547ZM66.6809 11.875L66.6966 12.8906H65.2356C64.8242 12.8906 64.457 12.9245 64.1341 12.9922C63.8111 13.0547 63.5403 13.151 63.3216 13.2812C63.1028 13.4115 62.9361 13.5755 62.8216 13.7734C62.707 13.9661 62.6497 14.1927 62.6497 14.4531C62.6497 14.7188 62.7096 14.9609 62.8294 15.1797C62.9492 15.3984 63.1289 15.5729 63.3684 15.7031C63.6132 15.8281 63.9127 15.8906 64.2669 15.8906C64.7096 15.8906 65.1002 15.7969 65.4388 15.6094C65.7773 15.4219 66.0455 15.1927 66.2434 14.9219C66.4466 14.651 66.5559 14.388 66.5716 14.1328L67.1888 14.8281C67.1523 15.0469 67.0533 15.2891 66.8919 15.5547C66.7304 15.8203 66.5143 16.0755 66.2434 16.3203C65.9778 16.5599 65.6601 16.7604 65.2903 16.9219C64.9257 17.0781 64.5143 17.1562 64.0559 17.1562C63.483 17.1562 62.9804 17.0443 62.5481 16.8203C62.121 16.5964 61.7877 16.2969 61.5481 15.9219C61.3138 15.5417 61.1966 15.1172 61.1966 14.6484C61.1966 14.1953 61.2851 13.7969 61.4622 13.4531C61.6393 13.1042 61.8945 12.8151 62.2278 12.5859C62.5611 12.3516 62.9622 12.1745 63.4309 12.0547C63.8997 11.9349 64.4231 11.875 65.0013 11.875H66.6809ZM73.2125 15.9688C73.5563 15.9688 73.874 15.8984 74.1656 15.7578C74.4573 15.6172 74.6969 15.4245 74.8844 15.1797C75.0719 14.9297 75.1786 14.6458 75.2047 14.3281H76.5797C76.5536 14.8281 76.3844 15.2943 76.0719 15.7266C75.7646 16.1536 75.3609 16.5 74.8609 16.7656C74.3609 17.026 73.8115 17.1562 73.2125 17.1562C72.5771 17.1562 72.0224 17.0443 71.5484 16.8203C71.0797 16.5964 70.6891 16.2891 70.3766 15.8984C70.0693 15.5078 69.8375 15.0599 69.6813 14.5547C69.5302 14.0443 69.4547 13.5052 69.4547 12.9375V12.6094C69.4547 12.0417 69.5302 11.5052 69.6813 11C69.8375 10.4896 70.0693 10.0391 70.3766 9.64844C70.6891 9.25781 71.0797 8.95052 71.5484 8.72656C72.0224 8.5026 72.5771 8.39062 73.2125 8.39062C73.874 8.39062 74.4521 8.52604 74.9469 8.79688C75.4417 9.0625 75.8297 9.42708 76.1109 9.89062C76.3974 10.349 76.5536 10.8698 76.5797 11.4531H75.2047C75.1786 11.1042 75.0797 10.7891 74.9078 10.5078C74.7411 10.2266 74.512 10.0026 74.2203 9.83594C73.9339 9.66406 73.5979 9.57812 73.2125 9.57812C72.7698 9.57812 72.3974 9.66667 72.0953 9.84375C71.7984 10.0156 71.5615 10.25 71.3844 10.5469C71.2125 10.8385 71.0875 11.1641 71.0094 11.5234C70.9365 11.8776 70.9 12.2396 70.9 12.6094V12.9375C70.9 13.3073 70.9365 13.6719 71.0094 14.0312C71.0823 14.3906 71.2047 14.7161 71.3766 15.0078C71.5536 15.2995 71.7906 15.5339 72.0875 15.7109C72.3896 15.8828 72.7646 15.9688 73.2125 15.9688ZM81.4238 8.54688V9.65625H76.8534V8.54688H81.4238ZM78.4003 6.49219H79.8456V14.9062C79.8456 15.1927 79.8899 15.4089 79.9784 15.5547C80.067 15.7005 80.1816 15.7969 80.3222 15.8438C80.4628 15.8906 80.6139 15.9141 80.7753 15.9141C80.8951 15.9141 81.0201 15.9036 81.1503 15.8828C81.2857 15.8568 81.3873 15.8359 81.455 15.8203L81.4628 17C81.3482 17.0365 81.1972 17.0703 81.0097 17.1016C80.8274 17.138 80.606 17.1562 80.3456 17.1562C79.9915 17.1562 79.6659 17.0859 79.3691 16.9453C79.0722 16.8047 78.8352 16.5703 78.6581 16.2422C78.4863 15.9089 78.4003 15.4609 78.4003 14.8984V6.49219ZM87.7209 14.7578C87.7209 14.5495 87.6741 14.3568 87.5803 14.1797C87.4918 13.9974 87.3069 13.8333 87.0256 13.6875C86.7496 13.5365 86.3329 13.4062 85.7756 13.2969C85.3069 13.1979 84.8824 13.0807 84.5022 12.9453C84.1272 12.8099 83.8069 12.6458 83.5412 12.4531C83.2808 12.2604 83.0803 12.0339 82.9397 11.7734C82.7991 11.513 82.7287 11.2083 82.7287 10.8594C82.7287 10.526 82.8017 10.2109 82.9475 9.91406C83.0985 9.61719 83.3095 9.35417 83.5803 9.125C83.8564 8.89583 84.1871 8.71615 84.5725 8.58594C84.9579 8.45573 85.3876 8.39062 85.8616 8.39062C86.5386 8.39062 87.1168 8.51042 87.5959 8.75C88.0751 8.98958 88.4423 9.3099 88.6975 9.71094C88.9527 10.1068 89.0803 10.5469 89.0803 11.0312H87.635C87.635 10.7969 87.5647 10.5703 87.4241 10.3516C87.2886 10.1276 87.0881 9.94271 86.8225 9.79688C86.5621 9.65104 86.2418 9.57812 85.8616 9.57812C85.4605 9.57812 85.135 9.64062 84.885 9.76562C84.6402 9.88542 84.4605 10.0391 84.3459 10.2266C84.2366 10.4141 84.1819 10.612 84.1819 10.8203C84.1819 10.9766 84.2079 11.1172 84.26 11.2422C84.3173 11.362 84.4162 11.474 84.5569 11.5781C84.6975 11.6771 84.8954 11.7708 85.1506 11.8594C85.4058 11.9479 85.7314 12.0365 86.1272 12.125C86.8199 12.2812 87.3902 12.4688 87.8381 12.6875C88.286 12.9062 88.6194 13.1745 88.8381 13.4922C89.0569 13.8099 89.1662 14.1953 89.1662 14.6484C89.1662 15.0182 89.0881 15.3568 88.9319 15.6641C88.7808 15.9714 88.5595 16.237 88.2678 16.4609C87.9814 16.6797 87.6376 16.8516 87.2366 16.9766C86.8407 17.0964 86.3954 17.1562 85.9006 17.1562C85.1558 17.1562 84.5256 17.0234 84.01 16.7578C83.4944 16.4922 83.1037 16.1484 82.8381 15.7266C82.5725 15.3047 82.4397 14.8594 82.4397 14.3906H83.8928C83.9136 14.7865 84.0282 15.1016 84.2366 15.3359C84.4449 15.5651 84.7001 15.7292 85.0022 15.8281C85.3043 15.9219 85.6037 15.9688 85.9006 15.9688C86.2965 15.9688 86.6272 15.9167 86.8928 15.8125C87.1636 15.7083 87.3694 15.5651 87.51 15.3828C87.6506 15.2005 87.7209 14.9922 87.7209 14.7578Z" fill="white"/>
<path d="M9.1656 0.00512865C9.13255 0.00192325 9.09916 0 9.06513 0L8.99673 0.000961622L8.93487 0C8.90116 0 8.86778 0.0016027 8.83505 0.00512865C3.95575 0.125652 0 4.08882 0 8.87866C0 15.0346 6.99251 20.7182 8.39389 21.7949C8.5716 21.9317 8.78596 22 9 22C9.21404 22 9.42807 21.9317 9.60611 21.7949C11.0078 20.7182 18 15.0346 18 8.87866C18 4.08882 14.0452 0.125652 9.1656 0.00512865ZM9 19.796C7.1172 18.2359 1.96364 13.539 1.96364 8.87866C1.96364 5.10493 5.09793 1.98607 8.95058 1.92613C8.96629 1.92613 8.98167 1.92549 8.99738 1.92453H9.00033C9.00098 1.92453 9.00229 1.92453 9.0036 1.92453C9.01898 1.92549 9.03436 1.92613 9.05007 1.92613C12.9024 1.98607 16.037 5.10493 16.037 8.87866C16.0364 13.539 10.8828 18.2359 9 19.796Z" fill="white"/>
<path d="M9.06551 4.45398C6.77329 4.45398 4.91504 6.27401 4.91504 8.5194C4.91504 10.7641 6.77329 12.5842 9.06551 12.5842C11.3577 12.5842 13.216 10.7641 13.216 8.5194C13.2157 6.27369 11.3577 4.45398 9.06551 4.45398ZM9.06551 10.6606C7.85984 10.6606 6.87868 9.69995 6.87868 8.51908C6.87868 7.33789 7.85984 6.3769 9.06551 6.3769C10.2715 6.3769 11.2523 7.33789 11.2523 8.51908C11.252 9.69995 10.2712 10.6606 9.06551 10.6606Z" fill="white"/>
</svg>
